<svg xmlns="http://www.w3.org/2000/svg" viewBox="0 0 24 24" width="24" height="24">

  <!-- BACK: Open book, top-right, lighter shade -->

  <!-- Left page -->
  <rect class="jp-icon-accent3" fill="#bdbdbd"
    x="10" y="2" width="6" height="11" rx="0.6"/>
  <!-- Right page -->
  <rect class="jp-icon-accent3" fill="#bdbdbd"
    x="16.5" y="2" width="6" height="11" rx="0.6"/>
  <!-- Center spine crease -->
  <rect class="jp-icon-accent4" fill="#9e9e9e"
    x="15.6" y="2" width="1.4" height="11" rx="0"/>

  <!-- Left page lines -->
  <rect class="jp-icon-accent4" fill="#9e9e9e" x="11"   y="4"   width="3.5" height="0.9" rx="0.3"/>
  <rect class="jp-icon-accent4" fill="#9e9e9e" x="11"   y="6"   width="3.5" height="0.9" rx="0.3"/>
  <rect class="jp-icon-accent4" fill="#9e9e9e" x="11"   y="8"   width="2.5" height="0.9" rx="0.3"/>
  <rect class="jp-icon-accent4" fill="#9e9e9e" x="11"   y="10"  width="3"   height="0.9" rx="0.3"/>

  <!-- Right page lines -->
  <rect class="jp-icon-accent4" fill="#9e9e9e" x="17.5" y="4"   width="3.5" height="0.9" rx="0.3"/>
  <rect class="jp-icon-accent4" fill="#9e9e9e" x="17.5" y="6"   width="3.5" height="0.9" rx="0.3"/>
  <rect class="jp-icon-accent4" fill="#9e9e9e" x="17.5" y="8"   width="2.5" height="0.9" rx="0.3"/>
  <rect class="jp-icon-accent4" fill="#9e9e9e" x="17.5" y="10"  width="3"   height="0.9" rx="0.3"/>

  <!-- FRONT: Extension puzzle piece icon, centered -->
  <path class="jp-icon3" fill="#616161"
    d="M20.5 11H19V7c0-1.1-.9-2-2-2h-4V3.5a2.5 2.5 0 0 0-5 0V5H4c-1.1 0-1.99.9-1.99
       2v3.8H3.5c1.49 0 2.7 1.21 2.7 2.7s-1.21 2.7-2.7 2.7H2V20c0 1.1.9 2 2 2h3.8v-1.5
       c0-1.49 1.21-2.7 2.7-2.7s2.7 1.21 2.7 2.7V22H17c1.1 0 2-.9 2-2v-4h1.5a2.5 2.5 0 0 0 0-5"
    transform="translate(-1, 3) scale(0.88)"/>

</svg>